HIERARCHY
ROOT Hips
{
	OFFSET -339.306915 540.749023 89.171944
	CHANNELS 6 Xposition Yposition Zposition Zrotation Yrotation Xrotation
	JOINT Spine
	{
		OFFSET 0.000000 2.080078 8.814247
		CHANNELS 6 Xposition Yposition Zposition Zrotation Yrotation Xrotation
		JOINT Spine1
		{
			OFFSET 0.000000 0.000000 8.844139
			CHANNELS 6 Xposition Yposition Zposition Zrotation Yrotation Xrotation
			JOINT Spine2
			{
				OFFSET 0.000000 0.000000 11.682266
				CHANNELS 6 Xposition Yposition Zposition Zrotation Yrotation Xrotation
				JOINT Spine3
				{
					OFFSET 0.000000 0.000000 11.746696
					CHANNELS 6 Xposition Yposition Zposition Zrotation Yrotation Xrotation
					JOINT Neck
					{
						OFFSET 0.000000 0.000000 17.658264
						CHANNELS 6 Xposition Yposition Zposition Zrotation Yrotation Xrotation
						JOINT Neck1
						{
							OFFSET 0.000000 0.000000 5.101517
							CHANNELS 6 Xposition Yposition Zposition Zrotation Yrotation Xrotation
							JOINT Head
							{
								OFFSET 0.000000 0.000000 5.101517
								CHANNELS 6 Xposition Yposition Zposition Zrotation Yrotation Xrotation
								JOINT HeadEnd
								{
									OFFSET 0.000000 0.000000 11.655090
									CHANNELS 6 Xposition Yposition Zposition Zrotation Yrotation Xrotation
									End Site
									{
										OFFSET 0.000000 0.000000 0.100006
									}
								}
							}
						}
					}
					JOINT RightShoulder
					{
						OFFSET -2.625397 0.000000 11.175217
						CHANNELS 6 Xposition Yposition Zposition Zrotation Yrotation Xrotation
						JOINT RightArm
						{
							OFFSET 0.000000 0.000000 10.434708
							CHANNELS 6 Xposition Yposition Zposition Zrotation Yrotation Xrotation
							JOINT RightForeArm
							{
								OFFSET 0.000000 0.000000 29.628418
								CHANNELS 6 Xposition Yposition Zposition Zrotation Yrotation Xrotation
								JOINT RightHand
								{
									OFFSET 0.000000 0.000000 22.857605
									CHANNELS 6 Xposition Yposition Zposition Zrotation Yrotation Xrotation
									JOINT RightHandThumb1
									{
										OFFSET -2.867310 -2.944275 3.959564
										CHANNELS 6 Xposition Yposition Zposition Zrotation Yrotation Xrotation
										JOINT RightHandThumb2
										{
											OFFSET 0.000000 0.000000 3.350403
											CHANNELS 6 Xposition Yposition Zposition Zrotation Yrotation Xrotation
											JOINT RightHandThumb3
											{
												OFFSET 0.000000 0.000000 3.756516
												CHANNELS 6 Xposition Yposition Zposition Zrotation Yrotation Xrotation
												JOINT RightHandThumb4
												{
													OFFSET 0.000000 0.000000 3.147339
													CHANNELS 6 Xposition Yposition Zposition Zrotation Yrotation Xrotation
													End Site
													{
														OFFSET 0.000000 0.000000 0.100006
													}
												}
											}
										}
									}
									JOINT RightHandIndex1
									{
										OFFSET -0.086761 -2.345276 10.030899
										CHANNELS 6 Xposition Yposition Zposition Zrotation Yrotation Xrotation
										JOINT RightHandIndex2
										{
											OFFSET 0.000000 0.000000 4.061096
											CHANNELS 6 Xposition Yposition Zposition Zrotation Yrotation Xrotation
											JOINT RightHandIndex3
											{
												OFFSET 0.000000 0.000000 3.248871
												CHANNELS 6 Xposition Yposition Zposition Zrotation Yrotation Xrotation
												JOINT RightHandIndex4
												{
													OFFSET 0.000000 0.000000 2.639709
													CHANNELS 6 Xposition Yposition Zposition Zrotation Yrotation Xrotation
													End Site
													{
														OFFSET 0.000000 0.000000 0.100006
													}
												}
											}
										}
									}
									JOINT RightHandMiddle1
									{
										OFFSET 0.104095 -0.006775 9.502945
										CHANNELS 6 Xposition Yposition Zposition Zrotation Yrotation Xrotation
										JOINT RightHandMiddle2
										{
											OFFSET 0.000000 0.000000 4.568726
											CHANNELS 6 Xposition Yposition Zposition Zrotation Yrotation Xrotation
											JOINT RightHandMiddle3
											{
												OFFSET 0.000000 0.000000 3.654984
												CHANNELS 6 Xposition Yposition Zposition Zrotation Yrotation Xrotation
												JOINT RightHandMiddle4
												{
													OFFSET 0.000000 0.000000 2.741241
													CHANNELS 6 Xposition Yposition Zposition Zrotation Yrotation Xrotation
													End Site
													{
														OFFSET 0.000000 0.000000 0.100006
													}
												}
											}
										}
									}
									JOINT RightHandRing1
									{
										OFFSET 0.086761 2.267456 8.921707
										CHANNELS 6 Xposition Yposition Zposition Zrotation Yrotation Xrotation
										JOINT RightHandRing2
										{
											OFFSET 0.000000 0.000000 4.061096
											CHANNELS 6 Xposition Yposition Zposition Zrotation Yrotation Xrotation
											JOINT RightHandRing3
											{
												OFFSET 0.000000 0.000000 3.654984
												CHANNELS 6 Xposition Yposition Zposition Zrotation Yrotation Xrotation
												JOINT RightHandRing4
												{
													OFFSET 0.000000 0.000000 2.741241
													CHANNELS 6 Xposition Yposition Zposition Zrotation Yrotation Xrotation
													End Site
													{
														OFFSET 0.000000 0.000000 0.100006
													}
												}
											}
										}
									}
									JOINT RightHandPinky1
									{
										OFFSET -0.173492 4.467224 7.976990
										CHANNELS 6 Xposition Yposition Zposition Zrotation Yrotation Xrotation
										JOINT RightHandPinky2
										{
											OFFSET 0.000000 0.000000 3.350403
											CHANNELS 6 Xposition Yposition Zposition Zrotation Yrotation Xrotation
											JOINT RightHandPinky3
											{
												OFFSET 0.000000 0.000000 2.842758
												CHANNELS 6 Xposition Yposition Zposition Zrotation Yrotation Xrotation
												JOINT RightHandPinky4
												{
													OFFSET 0.000000 0.000000 2.639709
													CHANNELS 6 Xposition Yposition Zposition Zrotation Yrotation Xrotation
													End Site
													{
														OFFSET 0.000000 0.000000 0.100006
													}
												}
											}
										}
									}
									JOINT RightForeArmEnd
									{
										OFFSET 0.000000 0.000000 0.000000
										CHANNELS 6 Xposition Yposition Zposition Zrotation Yrotation Xrotation
										End Site
										{
											OFFSET 0.000000 0.000000 0.100006
										}
									}
								}
								JOINT RightArmEnd
								{
									OFFSET 0.000000 0.000000 0.000000
									CHANNELS 6 Xposition Yposition Zposition Zrotation Yrotation Xrotation
									End Site
									{
										OFFSET 0.000000 0.000000 0.100006
									}
								}
							}
						}
					}
					JOINT LeftShoulder
					{
						OFFSET 2.625397 0.000000 11.175217
						CHANNELS 6 Xposition Yposition Zposition Zrotation Yrotation Xrotation
						JOINT LeftArm
						{
							OFFSET 0.000000 0.000000 10.813629
							CHANNELS 6 Xposition Yposition Zposition Zrotation Yrotation Xrotation
							JOINT LeftForeArm
							{
								OFFSET 0.000000 0.000000 28.724777
								CHANNELS 6 Xposition Yposition Zposition Zrotation Yrotation Xrotation
								JOINT LeftHand
								{
									OFFSET 0.644379 0.328857 25.716171
									CHANNELS 6 Xposition Yposition Zposition Zrotation Yrotation Xrotation
									JOINT LeftHandThumb1
									{
										OFFSET 2.867310 -2.944275 3.959564
										CHANNELS 6 Xposition Yposition Zposition Zrotation Yrotation Xrotation
										JOINT LeftHandThumb2
										{
											OFFSET 0.000000 0.000000 3.350403
											CHANNELS 6 Xposition Yposition Zposition Zrotation Yrotation Xrotation
											JOINT LeftHandThumb3
											{
												OFFSET 0.000000 0.000000 3.756516
												CHANNELS 6 Xposition Yposition Zposition Zrotation Yrotation Xrotation
												JOINT LeftHandThumb4
												{
													OFFSET 0.000000 0.000000 3.100006
													CHANNELS 6 Xposition Yposition Zposition Zrotation Yrotation Xrotation
													End Site
													{
														OFFSET 0.000000 0.000000 0.100006
													}
												}
											}
										}
									}
									JOINT LeftHandIndex1
									{
										OFFSET 0.086761 -2.345276 10.030899
										CHANNELS 6 Xposition Yposition Zposition Zrotation Yrotation Xrotation
										JOINT LeftHandIndex2
										{
											OFFSET 0.000000 0.000000 4.061096
											CHANNELS 6 Xposition Yposition Zposition Zrotation Yrotation Xrotation
											JOINT LeftHandIndex3
											{
												OFFSET 0.000000 0.000000 3.248871
												CHANNELS 6 Xposition Yposition Zposition Zrotation Yrotation Xrotation
												JOINT LeftHandIndex4
												{
													OFFSET 0.000000 0.000000 2.639709
													CHANNELS 6 Xposition Yposition Zposition Zrotation Yrotation Xrotation
													End Site
													{
														OFFSET 0.000000 0.000000 0.100006
													}
												}
											}
										}
									}
									JOINT LeftHandMiddle1
									{
										OFFSET -0.104095 -0.006775 9.502945
										CHANNELS 6 Xposition Yposition Zposition Zrotation Yrotation Xrotation
										JOINT LeftHandMiddle2
										{
											OFFSET 0.000000 0.000000 4.568726
											CHANNELS 6 Xposition Yposition Zposition Zrotation Yrotation Xrotation
											JOINT LeftHandMiddle3
											{
												OFFSET 0.000000 0.000000 3.654984
												CHANNELS 6 Xposition Yposition Zposition Zrotation Yrotation Xrotation
												JOINT LeftHandMiddle4
												{
													OFFSET 0.000000 0.000000 2.741241
													CHANNELS 6 Xposition Yposition Zposition Zrotation Yrotation Xrotation
													End Site
													{
														OFFSET 0.000000 0.000000 0.100006
													}
												}
											}
										}
									}
									JOINT LeftHandRing1
									{
										OFFSET -0.086761 2.267456 8.921707
										CHANNELS 6 Xposition Yposition Zposition Zrotation Yrotation Xrotation
										JOINT LeftHandRing2
										{
											OFFSET 0.000000 0.000000 4.061096
											CHANNELS 6 Xposition Yposition Zposition Zrotation Yrotation Xrotation
											JOINT LeftHandRing3
											{
												OFFSET 0.000000 0.000000 3.654984
												CHANNELS 6 Xposition Yposition Zposition Zrotation Yrotation Xrotation
												JOINT LeftHandRing4
												{
													OFFSET 0.000000 0.000000 2.741241
													CHANNELS 6 Xposition Yposition Zposition Zrotation Yrotation Xrotation
													End Site
													{
														OFFSET 0.000000 0.000000 0.100006
													}
												}
											}
										}
									}
									JOINT LeftHandPinky1
									{
										OFFSET 0.173492 4.467224 7.976990
										CHANNELS 6 Xposition Yposition Zposition Zrotation Yrotation Xrotation
										JOINT LeftHandPinky2
										{
											OFFSET 0.000000 0.000000 3.350403
											CHANNELS 6 Xposition Yposition Zposition Zrotation Yrotation Xrotation
											JOINT LeftHandPinky3
											{
												OFFSET 0.000000 0.000000 2.842758
												CHANNELS 6 Xposition Yposition Zposition Zrotation Yrotation Xrotation
												JOINT LeftHandPinky4
												{
													OFFSET 0.000000 0.000000 2.639709
													CHANNELS 6 Xposition Yposition Zposition Zrotation Yrotation Xrotation
													End Site
													{
														OFFSET 0.000000 0.000000 0.100006
													}
												}
											}
										}
									}
									JOINT LeftForeArmEnd
									{
										OFFSET 0.000000 0.000000 0.000000
										CHANNELS 6 Xposition Yposition Zposition Zrotation Yrotation Xrotation
										End Site
										{
											OFFSET 0.000000 0.000000 0.100006
										}
									}
								}
								JOINT LeftArmEnd
								{
									OFFSET 0.000000 0.000000 0.000000
									CHANNELS 6 Xposition Yposition Zposition Zrotation Yrotation Xrotation
									End Site
									{
										OFFSET 0.000000 0.000000 0.100006
									}
								}
							}
						}
					}
				}
			}
		}
	}
	JOINT RightUpLeg
	{
		OFFSET -11.289948 0.000000 0.000000
		CHANNELS 6 Xposition Yposition Zposition Zrotation Yrotation Xrotation
		JOINT RightLeg
		{
			OFFSET 0.000000 0.000000 -38.200329
			CHANNELS 6 Xposition Yposition Zposition Zrotation Yrotation Xrotation
			JOINT RightFoot
			{
				OFFSET 0.000000 0.000000 -39.900856
				CHANNELS 6 Xposition Yposition Zposition Zrotation Yrotation Xrotation
				JOINT RightToeBase
				{
					OFFSET 0.000000 -15.261658 0.000001
					CHANNELS 6 Xposition Yposition Zposition Zrotation Yrotation Xrotation
					JOINT RightToeBaseEnd
					{
						OFFSET 0.000000 -7.370728 0.000001
						CHANNELS 6 Xposition Yposition Zposition Zrotation Yrotation Xrotation
						End Site
						{
							OFFSET 0.000000 0.000000 0.100000
						}
					}
				}
				JOINT RightLegEnd
				{
					OFFSET 0.000000 0.000000 0.000000
					CHANNELS 6 Xposition Yposition Zposition Zrotation Yrotation Xrotation
					End Site
					{
						OFFSET 0.000000 0.000000 0.100000
					}
				}
			}
			JOINT RightUpLegEnd
			{
				OFFSET 0.000000 0.000000 0.000000
				CHANNELS 6 Xposition Yposition Zposition Zrotation Yrotation Xrotation
				End Site
				{
					OFFSET 0.000000 0.000000 0.099998
				}
			}
		}
	}
	JOINT LeftUpLeg
	{
		OFFSET 11.315674 0.000000 0.000000
		CHANNELS 6 Xposition Yposition Zposition Zrotation Yrotation Xrotation
		JOINT LeftLeg
		{
			OFFSET 0.000000 0.000000 -38.200329
			CHANNELS 6 Xposition Yposition Zposition Zrotation Yrotation Xrotation
			JOINT LeftFoot
			{
				OFFSET 0.000000 0.000000 -39.900856
				CHANNELS 6 Xposition Yposition Zposition Zrotation Yrotation Xrotation
				JOINT LeftToeBase
				{
					OFFSET 0.000000 -15.261658 0.000001
					CHANNELS 6 Xposition Yposition Zposition Zrotation Yrotation Xrotation
					JOINT LeftToeBaseEnd
					{
						OFFSET 0.000000 -7.539978 0.000001
						CHANNELS 6 Xposition Yposition Zposition Zrotation Yrotation Xrotation
						End Site
						{
							OFFSET 0.000000 0.000000 0.100000
						}
					}
				}
				JOINT LeftLegEnd
				{
					OFFSET 0.000000 0.000000 0.000000
					CHANNELS 6 Xposition Yposition Zposition Zrotation Yrotation Xrotation
					End Site
					{
						OFFSET 0.000000 0.000000 0.100000
					}
				}
			}
			JOINT LeftUpLegEnd
			{
				OFFSET 0.000000 0.000000 0.000000
				CHANNELS 6 Xposition Yposition Zposition Zrotation Yrotation Xrotation
				End Site
				{
					OFFSET 0.000000 0.000000 0.099998
				}
			}
		}
	}
}
MOTION
Frames: 2
Frame Time: 0.016667
-23.202454 -51.102905 83.050484 0.294003 -3.636645 -10.822801 0.000007 2.080090 8.814241 -0.076306 0.441415 9.173000 -0.000014 -0.000011 8.844158 0.061441 -0.588630 4.060991 0.000014 0.000002 11.682264 1.900562 0.804592 6.970672 0.000026 -0.000010 11.746733 0.714828 2.932898 6.529002 -0.000000 0.000002 17.658279 1.261124 16.069617 2.432712 -0.000022 -0.000002 5.101536 -4.783004 3.019340 -5.250571 -0.000003 -0.000021 5.101518 -0.069162 1.450613 -15.926739 -0.000000 -0.000001 11.655100 0.000000 -0.000001 0.000000 -2.625393 -0.000006 11.175207 12.425961 -83.358067 0.584676 0.000023 -0.000023 10.434723 -18.244035 -73.408558 39.823367 0.000040 -0.000008 29.628428 19.703013 0.094551 25.579921 0.000031 -0.000003 22.857594 51.110288 -8.176212 -6.587844 -2.867302 -2.944260 3.959587 33.000831 -12.049523 60.205980 0.000007 -0.000015 3.350393 -1.497336 1.421694 -2.968173 0.000005 0.000002 3.756521 -1.031942 0.995657 -2.056731 0.000015 -0.000064 3.147335 0.000000 -0.000001 0.000002 -0.086761 -2.345284 10.030853 13.363870 24.987909 41.055536 0.000018 0.000021 4.061094 -0.533478 -0.027995 0.000305 0.000001 0.000072 3.248869 -0.056714 0.015500 0.001511 -0.000004 -0.000004 2.639709 -0.000000 -0.000002 -0.000000 0.104068 -0.006771 9.502975 7.604941 20.912205 23.862519 -0.000003 -0.000014 4.568731 -0.510721 0.000110 -0.000204 -0.000011 -0.000049 3.654968 -0.038988 -0.000008 0.001010 0.000044 -0.000019 2.741257 0.000000 -0.000001 0.000001 0.086742 2.267477 8.921700 -2.776859 10.402016 5.470839 0.000014 0.000023 4.061106 1.003731 -0.000193 0.000007 0.000008 0.000003 3.654990 0.002901 0.000002 -0.000236 0.000011 -0.000072 2.741247 0.000003 0.000000 -0.000001 -0.173523 4.467239 7.976988 -12.900617 -3.854873 -12.036373 0.000009 -0.000005 3.350411 1.999047 -0.747733 0.145357 0.000007 0.000009 2.842775 -0.000949 -0.747750 0.145360 -0.000013 -0.000007 2.639685 0.000002 -0.000001 -0.000000 0.000012 -0.000002 0.000006 -0.000001 -0.000000 0.000001 0.000000 0.000006 0.000021 0.000000 0.000000 -0.000001 2.625435 -0.000001 11.175200 -16.472560 83.354590 -0.323411 0.000031 -0.000027 10.813610 59.240901 30.949448 72.487903 -0.000004 0.000008 28.724728 -26.139728 -0.298587 47.553461 0.644360 0.328876 25.716162 -4.255046 3.523837 -3.738267 2.867302 -2.944260 3.959541 -32.008158 15.052125 54.995362 0.000015 0.000034 3.350422 7.829711 -6.054754 -14.604889 0.000008 0.000008 3.756542 5.270535 -4.419858 -10.045264 -0.000003 0.000000 3.100008 0.000000 -0.000003 0.000002 0.086761 -2.345261 10.030861 7.097536 -8.086614 20.513047 0.000010 0.000029 4.061098 -0.512245 0.000005 -0.000022 0.000013 -0.000060 3.248895 -0.011536 -0.000002 0.000049 0.000004 -0.000009 2.639751 0.000001 0.000001 -0.000001 -0.104095 -0.006766 9.502937 2.388545 -6.633980 14.216404 -0.000013 -0.000011 4.568767 -0.516031 0.046925 -0.000440 -0.000005 0.000029 3.654982 -0.019968 -0.026022 -0.001900 0.000036 -0.000002 2.741252 0.000003 -0.000002 -0.000001 -0.086758 2.267445 8.921692 -5.438948 -4.831827 7.985383 -0.000015 0.000002 4.061098 1.011535 -0.000143 -0.000077 0.000010 -0.000017 3.655006 0.012704 -0.000005 0.000015 0.000007 -0.000014 2.741264 0.000002 -0.000001 -0.000002 0.173483 4.467242 7.976985 -13.909446 -4.926023 0.334303 0.000011 0.000026 3.350403 2.005281 0.000004 -0.000001 -0.000006 0.000023 2.842751 0.004615 -0.000006 0.000001 -0.000009 0.000008 2.639725 0.000001 0.000003 -0.000002 0.000005 -0.000002 -0.000007 0.000000 -0.000002 0.000004 -0.000013 -0.000010 0.000028 0.000002 -0.000002 -0.000001 -11.289964 0.000050 0.000010 12.618178 0.374898 -8.869514 -0.000005 0.000032 -38.200283 0.157106 -0.196462 51.364406 0.000009 0.000049 -39.900848 -10.154037 0.680426 0.604945 0.000014 -15.261641 -0.000002 -0.018175 0.644179 -21.205507 0.000002 -7.370670 0.000002 0.000001 -0.000000 -0.000001 0.000003 0.000060 -0.000005 0.000000 -0.000001 -0.000001 0.000004 0.000001 0.000004 0.000000 0.000000 -0.000001 11.315672 0.000008 0.000000 -5.300960 2.671758 -12.456702 -0.000006 0.000098 -38.200268 0.195412 -0.193609 44.732893 -0.000012 -0.000009 -39.900871 10.330998 3.702234 7.647473 0.000007 -15.261623 0.000003 -1.209131 -0.404898 -20.280973 0.000003 -7.539917 0.000003 0.000000 -0.000000 -0.000001 0.000004 0.000004 0.000004 -0.000001 -0.000000 0.000000 0.000001 -0.000003 -0.000012 0.000000 0.000001 0.000000 
-23.152466 -51.033630 82.559860 0.248725 -4.066775 -11.210188 -0.000009 2.080073 8.814251 -0.064737 0.403969 9.564608 0.000006 0.000028 8.844147 0.112140 -0.611439 4.221136 0.000011 0.000005 11.682273 2.119153 0.963495 7.257944 -0.000034 -0.000007 11.746727 0.824450 3.406533 6.671531 -0.000015 -0.000002 17.658287 1.703861 16.513709 1.231570 -0.000019 0.000003 5.101524 -4.591364 2.930631 -5.928676 -0.000005 -0.000018 5.101526 -0.088131 1.430634 -15.931269 0.000007 0.000004 11.655095 -0.000000 0.000000 0.000000 -2.625412 -0.000003 11.175237 12.367766 -83.504158 0.602214 -0.000008 0.000005 10.434713 -7.017934 -77.184990 29.361761 0.000015 0.000000 29.628443 22.477348 0.033164 25.056009 0.000019 -0.000063 22.857586 74.837713 -7.870471 -7.700375 -2.867271 -2.944244 3.959526 32.873069 -12.350617 59.650494 -0.000000 0.000002 3.350392 -2.116815 1.968273 -4.165532 0.000045 0.000023 3.756529 -1.454742 1.383215 -2.885101 0.000026 0.000001 3.147357 0.000000 -0.000001 0.000001 -0.086735 -2.345291 10.030930 12.258626 21.720295 42.620763 0.000002 -0.000020 4.061092 -0.530779 0.000002 0.000041 0.000006 0.000013 3.248879 -0.051585 0.000002 0.001307 -0.000004 0.000008 2.639711 0.000000 0.000002 0.000001 0.104131 -0.006767 9.502945 6.370476 15.331992 24.436790 0.000034 0.000014 4.568744 -0.509570 0.000145 -0.000191 -0.000002 0.000012 3.654975 -0.035122 0.000004 0.000926 0.000010 -0.000010 2.741244 -0.000000 0.000001 0.000001 0.086757 2.267450 8.921685 -4.223415 1.931126 6.681501 -0.000008 0.000018 4.061096 0.999997 -0.000003 -0.000005 0.000007 0.000008 3.654994 -0.000003 -0.000011 0.000003 0.000002 -0.000022 2.741248 0.000003 -0.000001 -0.000000 -0.173500 4.467205 7.976974 -14.984417 -13.585436 -10.261669 0.000011 0.000015 3.350401 1.900249 -7.639615 1.494041 0.000011 -0.000057 2.842771 -0.099766 -7.639616 1.494013 0.000006 0.000013 2.639690 -0.000001 -0.000003 -0.000000 0.000008 0.000008 -0.000016 -0.000002 -0.000001 -0.000001 0.000004 0.000012 0.000006 -0.000000 0.000000 0.000002 2.625389 -0.000005 11.175241 -16.141248 83.861616 -0.348430 0.000011 0.000004 10.813610 59.381630 33.721884 72.888336 -0.000038 -0.000015 28.724730 -27.816039 -0.386713 46.178195 0.644363 0.328831 25.716158 -22.689458 4.248998 -4.134580 2.867306 -2.944275 3.959572 -31.969940 15.218339 54.724961 -0.000011 0.000031 3.350399 8.189162 -6.261736 -15.233321 0.000013 0.000015 3.756531 5.506914 -4.583289 -10.473323 0.000002 -0.000011 3.100006 0.000001 0.000001 0.000001 0.086763 -2.345272 10.030903 7.334731 -6.676084 20.451548 -0.000003 -0.000027 4.061097 -0.509423 -0.028673 0.000243 -0.000012 0.000018 3.248882 -0.008875 0.015870 0.000033 0.000008 -0.000004 2.639744 0.000000 -0.000001 -0.000001 -0.104101 -0.006774 9.502937 2.624886 -5.287372 13.586049 -0.000010 0.000029 4.568735 -0.512295 0.000010 -0.000012 -0.000001 -0.000030 3.654993 -0.015252 -0.000000 -0.001161 0.000001 -0.000005 2.741265 0.000001 0.000001 -0.000003 -0.086761 2.267471 8.921713 -5.225862 -3.706514 6.518907 0.000011 0.000002 4.061096 1.007930 0.000087 -0.000049 -0.000011 0.000030 3.654989 0.008654 -0.000003 0.000007 0.000010 0.000002 2.741255 0.000001 -0.000001 -0.000003 0.173494 4.467235 7.976984 -13.672868 -4.323174 -2.232734 -0.000003 0.000024 3.350413 2.003010 0.000001 0.000003 0.000009 0.000020 2.842766 0.002609 -0.000000 -0.000001 0.000004 0.000007 2.639709 -0.000000 -0.000001 -0.000003 0.000013 0.000018 0.000017 0.000004 0.000001 -0.000000 -0.000024 -0.000008 0.000011 0.000000 -0.000003 -0.000000 -11.289960 0.000041 0.000007 12.431063 0.838356 -9.263196 -0.000009 0.000029 -38.200268 0.145072 -0.193041 53.076724 0.000007 0.000089 -39.900848 -9.875154 0.576379 -0.471900 0.000005 -15.261650 0.000000 -0.016089 0.684592 -20.956479 -0.000001 -7.370669 0.000001 0.000001 -0.000000 -0.000001 0.000002 0.000060 0.000001 0.000000 0.000000 -0.000001 0.000005 0.000050 -0.000004 0.000002 0.000001 -0.000004 11.315645 0.000065 -0.000010 -3.526793 2.868806 -13.226907 -0.000009 0.000119 -38.200275 0.241336 -0.257065 46.807720 -0.000031 -0.000006 -39.900864 9.175047 3.878262 7.355214 0.000001 -15.261625 -0.000005 -1.259565 -0.307210 -20.970953 -0.000005 -7.539979 0.000004 0.000000 0.000000 -0.000002 -0.000003 -0.000063 -0.000000 0.000000 0.000000 -0.000000 -0.000002 0.000059 0.000004 0.000000 -0.000000 0.000002 
